<svg xmlns="http://www.w3.org/2000/svg" width="2500" height="498" viewBox="0 0 494.713 98.641"><g fill="#cc2229"><path d="M136.512 87.408l-.072 2.52h-21.168V26.641l25.704 39.6c1.728 2.448 4.608 4.032 7.632 4.032a9.495 9.495 0 0 0 9.504-9.504 9.495 9.495 0 0 0-9.504-9.505c-3.744 0-6.912 2.305-8.424 5.257l-24.768-39.168-.144-7.992h21.168l-.216 24.768c3.528-1.8 7.992-2.808 12.384-2.808 16.272 0 29.52 13.248 29.52 29.448 0 16.128-13.248 29.376-29.52 29.376-4.176 0-8.28-1.009-12.096-2.737zM392.473 86.615l-.145 2.521H371.23V25.849l25.705 39.6c1.656 2.376 4.537 4.032 7.633 4.032a9.495 9.495 0 0 0 9.504-9.504 9.495 9.495 0 0 0-9.504-9.505c-3.744 0-6.984 2.305-8.496 5.257l-24.768-39.168-.074-7.992h21.098l-.217 24.768c3.529-1.8 7.992-2.808 12.457-2.808 16.199 0 29.447 13.248 29.447 29.448 0 16.127-13.248 29.375-29.447 29.375-4.248 0-8.353-1.008-12.095-2.737zM443.16 42.121l13.752 23.76c1.656 3.023 4.752 5.039 8.279 5.039 5.256 0 9.504-4.176 9.504-9.432s-4.248-9.504-9.504-9.504c-2.809 0-5.545 1.224-7.271 3.456l-10.441-17.496c5.041-3.888 11.018-5.977 17.713-5.977 16.271 0 29.521 13.249 29.521 29.521 0 16.127-13.25 29.375-29.521 29.375-16.199 0-29.447-13.248-29.447-29.375-.001-7.343 2.663-14.112 7.415-19.367zM275.688 67.608h-21.312c-.504 3.527-3.527 6.336-7.127 6.336-3.024 0-5.544-1.872-6.624-4.608l-16.92-26.855c-3.456 4.896-5.76 11.304-5.76 17.496 0 16.127 13.32 29.375 29.521 29.375 13.389 0 24.694-9.216 28.222-21.744zM197.424 31.68c-1.008-.072-1.944.072-2.88.216-3.6.648-6.84 2.447-9.216 5.112l9.216 13.68 9.144 13.536v-7.561c-.072-3.672 2.52-6.479 6.048-6.479l6.84.071V31.752l-19.152-.072zM182.232 42.121c-.72 1.872-1.152 3.888-1.152 5.976V88.92H203.832V74.952l-9.288-13.968-12.312-18.863zM281.447 42.696l20.16 32.76v13.608l-20.16-.144V42.696zM301.607 36.072c3.6-2.952 8.281-4.896 13.176-4.896 6.408 0 12.24 2.952 15.84 7.776 3.672-4.68 9.504-7.632 15.912-7.632 11.088 0 20.232 9.144 20.232 20.231l-.145 37.225-20.52.144V55.944c0-3.312-2.879-6.12-6.191-6.12s-6.049 2.809-6.049 6.12v32.832h-20.088V55.512c0-3.096-2.881-5.903-6.191-5.903-3.312 0-6.049 2.808-6.049 6.12v9.288L281.52 32.185h20.088v3.887h-.001zM49.392 0C39.24 0 30.167 2.664 22.32 7.993l17.784 33.624c2.088-2.664 5.617-4.392 9.288-4.392 6.624 0 12.096 5.472 12.096 12.096s-5.472 12.168-12.096 12.168c-4.896 0-8.712-2.664-10.512-6.912l-22.896-41.76C6.192 22.032 0 35.208 0 49.32c0 27.144 22.176 49.32 49.392 49.32 27.144 0 49.32-22.177 49.32-49.32C98.711 22.176 76.536 0 49.392 0zm.072 85.968c-20.16 0-36.648-16.416-36.648-36.647 0-4.32.792-8.568 2.304-12.672l15.264 26.424c4.104 6.12 10.872 10.224 19.008 10.224 13.248 0 23.976-10.728 23.976-23.976S62.64 25.344 49.392 25.344c-1.584 0-3.024.217-4.68.505l-5.976-11.304c3.312-1.152 7.344-1.872 10.728-1.872 20.016-.216 36.72 16.488 36.72 36.648 0 20.231-16.488 36.647-36.72 36.647z"/><path d="M247.464 30.528c-7.777 0-14.977 3.168-20.232 8.064l15.192 24.264h34.055c.145-.937.361-1.944.361-2.88 0-16.2-13.248-29.448-29.376-29.448zm-7.416 21.241c.792-3.096 3.6-5.4 6.912-5.4 3.457 0 6.265 2.16 6.912 5.4h-13.824z"/></g></svg>
